<?xml version="1.0" encoding="UTF-8"?>
<svg width="50px" height="48px" viewBox="0 0 50 48" version="1.1" xmlns="http://www.w3.org/2000/svg" xmlns:xlink="http://www.w3.org/1999/xlink">
    <!-- Generator: Sketch 49 (51002) - http://www.bohemiancoding.com/sketch -->
    <title>Combined Shape</title>
    <desc>Created with Sketch.</desc>
    <defs></defs>
    <g id="Page-1" stroke="none" stroke-width="1" fill="none" fill-rule="evenodd">
        <g id="Group-4" transform="translate(25.000000, 24.000000) scale(-1, 1) translate(-25.000000, -24.000000) translate(-9.000000, -10.000000)" fill="#FFFFFF">
            <path d="M34.1021538,58 C28.3109862,58 22.9988896,55.9488528 18.8527196,52.533414 C18.1891202,52.533414 8.5331859,53.4505739 9.12717505,52.2849887 C10.1021538,50.3717874 9.12717505,52.2849887 12.9866316,45.417352 C11.14687,42.0220217 10.1021538,38.1330141 10.1021538,34 C10.1021538,20.745166 20.8473198,10 34.1021538,10 C47.3569878,10 58.1021538,20.745166 58.1021538,34 C58.1021538,47.254834 47.3569878,58 34.1021538,58 Z M44,34 C46.7614237,34 49,31.7614237 49,29 C49,26.2385763 46.7614237,24 44,24 C41.2385763,24 39,26.2385763 39,29 C39,31.7614237 41.2385763,34 44,34 Z M24,34 C26.7614237,34 29,31.7614237 29,29 C29,26.2385763 26.7614237,24 24,24 C21.2385763,24 19,26.2385763 19,29 C19,31.7614237 21.2385763,34 24,34 Z" id="Combined-Shape"></path>
        </g>
    </g>
</svg>